<svg viewBox="0 0 24 26" xmlns="http://www.w3.org/2000/svg" xmlns:xlink="http://www.w3.org/1999/xlink" width="24.000000" height="26.000000" fill="none">
	<rect id="carbon:send-alt" width="24.000000" height="26.000000" x="0.000000" y="0.000000" fill="rgb(255,255,255)" fill-opacity="0" />
	<path id="Vector" d="M23.71 1.34195C23.575 1.20225 23.4045 1.10552 23.2185 1.06315C23.0325 1.02078 22.8388 1.03451 22.66 1.10275L0.660001 9.42275C0.470269 9.49759 0.306921 9.63069 0.191652 9.80438C0.0763829 9.97806 0.0146484 10.1841 0.0146484 10.3951C0.0146484 10.6062 0.0763829 10.8122 0.191652 10.9859C0.306921 11.1596 0.470269 11.2927 0.660001 11.3675L10.26 15.3611L14.1 25.3451C14.1721 25.5338 14.2958 25.6964 14.4557 25.8128C14.6157 25.9292 14.8049 25.9944 15 26.0003C15.2021 25.996 15.3982 25.9281 15.5624 25.8056C15.7266 25.6831 15.8513 25.5117 15.92 25.3139L23.92 2.43395C23.9881 2.24995 24.0046 2.04959 23.9674 1.85625C23.9302 1.66291 23.8409 1.48454 23.71 1.34195ZM15 22.0483L12.21 14.7683L17 9.78675L15.59 8.32035L10.76 13.3435L3.8 10.4003L21.33 3.81715L15 22.0483Z" fill="rgb(142.322,194.285,242.25)" fill-rule="nonzero" />
</svg>
