<svg viewBox="0 0 24 24" xmlns="http://www.w3.org/2000/svg" xmlns:xlink="http://www.w3.org/1999/xlink" width="24.000000" height="24.000000" fill="none">
	<rect id="ant-design:facebook-filled" width="24.000000" height="24.000000" x="0.000000" y="0.000000" fill="rgb(255,255,255)" fill-opacity="0" />
	<path id="Vector" d="M23.04 0L0.96 0C0.429 0 0 0.429 0 0.96L0 23.04C0 23.571 0.429 24 0.96 24L23.04 24C23.571 24 24 23.571 24 23.04L24 0.96C24 0.429 23.571 0 23.04 0ZM20.268 7.005L18.351 7.005C16.848 7.005 16.557 7.719 16.557 8.769L16.557 11.082L20.145 11.082L19.677 14.703L16.557 14.703L16.557 24L12.816 24L12.816 14.706L9.687 14.706L9.687 11.082L12.816 11.082L12.816 8.412C12.816 5.313 14.709 3.624 17.475 3.624C18.801 3.624 19.938 3.723 20.271 3.768L20.271 7.005L20.268 7.005Z" fill="rgb(51.1328,91.3338,245.438)" fill-rule="nonzero" />
</svg>
