<svg viewBox="0 0 24 24" xmlns="http://www.w3.org/2000/svg" xmlns:xlink="http://www.w3.org/1999/xlink" width="24.000000" height="24.000000" fill="none">
	<rect id="ant-design:instagram-outlined" width="24.000000" height="24.000000" x="0.000000" y="0.000000" fill="rgb(255,255,255)" fill-opacity="0" />
	<path id="Vector" d="M12.0016 5.84719C8.59659 5.84719 5.84859 8.59519 5.84859 12.0002C5.84859 15.4052 8.59659 18.1532 12.0016 18.1532C15.4066 18.1532 18.1546 15.4052 18.1546 12.0002C18.1546 8.59519 15.4066 5.84719 12.0016 5.84719ZM12.0016 15.9992C9.79959 15.9992 8.00259 14.2022 8.00259 12.0002C8.00259 9.79819 9.79959 8.00119 12.0016 8.00119C14.2036 8.00119 16.0006 9.79819 16.0006 12.0002C16.0006 14.2022 14.2036 15.9992 12.0016 15.9992ZM18.4066 4.16119C17.6116 4.16119 16.9696 4.80319 16.9696 5.59819C16.9696 6.39319 17.6116 7.03519 18.4066 7.03519C19.2016 7.03519 19.8436 6.39619 19.8436 5.59819C19.8438 5.40942 19.8068 5.22245 19.7347 5.048C19.6625 4.87354 19.5567 4.71504 19.4232 4.58155C19.2897 4.44807 19.1312 4.34223 18.9568 4.2701C18.7823 4.19796 18.5954 4.16096 18.4066 4.16119ZM23.9956 12.0002C23.9956 10.3442 24.0106 8.70319 23.9176 7.05019C23.8246 5.13019 23.3866 3.42619 21.9826 2.02219C20.5756 0.615193 18.8746 0.180193 16.9546 0.0871931C15.2986 -0.00580693 13.6576 0.00919311 12.0046 0.00919311C10.3486 0.00919311 8.70759 -0.00580693 7.05459 0.0871931C5.13459 0.180193 3.43059 0.618193 2.02659 2.02219C0.619588 3.42919 0.184588 5.13019 0.0915876 7.05019C-0.00141239 8.70619 0.0135876 10.3472 0.0135876 12.0002C0.0135876 13.6532 -0.00141239 15.2972 0.0915876 16.9502C0.184588 18.8702 0.622588 20.5742 2.02659 21.9782C3.43359 23.3852 5.13459 23.8202 7.05459 23.9132C8.71059 24.0062 10.3516 23.9912 12.0046 23.9912C13.6606 23.9912 15.3016 24.0062 16.9546 23.9132C18.8746 23.8202 20.5786 23.3822 21.9826 21.9782C23.3896 20.5712 23.8246 18.8702 23.9176 16.9502C24.0136 15.2972 23.9956 13.6562 23.9956 12.0002ZM21.3556 19.0742C21.1366 19.6202 20.8726 20.0282 20.4496 20.4482C20.0266 20.8712 19.6216 21.1352 19.0756 21.3542C17.4976 21.9812 13.7506 21.8402 12.0016 21.8402C10.2526 21.8402 6.50259 21.9812 4.92459 21.3572C4.37859 21.1382 3.97059 20.8742 3.55059 20.4512C3.12759 20.0282 2.86359 19.6232 2.64459 19.0772C2.02059 17.4962 2.16159 13.7492 2.16159 12.0002C2.16159 10.2512 2.02059 6.50119 2.64459 4.92319C2.86359 4.37719 3.12759 3.96919 3.55059 3.54919C3.97359 3.12919 4.37859 2.86219 4.92459 2.64319C6.50259 2.01919 10.2526 2.16019 12.0016 2.16019C13.7506 2.16019 17.5006 2.01919 19.0786 2.64319C19.6246 2.86219 20.0326 3.12619 20.4526 3.54919C20.8756 3.97219 21.1396 4.37719 21.3586 4.92319C21.9826 6.50119 21.8416 10.2512 21.8416 12.0002C21.8416 13.7492 21.9826 17.4962 21.3556 19.0742Z" fill="rgb(229.5,30.6,90.27)" fill-rule="nonzero" />
</svg>
