<svg viewBox="0 0 24 17.6842" xmlns="http://www.w3.org/2000/svg" xmlns:xlink="http://www.w3.org/1999/xlink" width="24.000000" height="17.684204" fill="none">
	<rect id="carbon:logo-youtube" width="24.000000" height="17.684210" x="0.000000" y="-0.000122" fill="rgb(255,255,255)" fill-opacity="0" />
	<path id="Vector" d="M23.4699 2.77395C23.3335 2.24099 23.0663 1.75505 22.6951 1.36477C22.324 0.974499 21.8619 0.693576 21.355 0.550119C19.4884 0.0189211 11.9879 0.0189209 11.9879 0.0189209C11.9879 0.0189209 4.48729 0.0189211 2.62071 0.550119C2.11385 0.693576 1.65172 0.974499 1.28057 1.36477C0.90941 1.75505 0.642248 2.24099 0.50582 2.77395C0.157288 4.77564 -0.0118455 6.8073 0.000644257 8.84221C-0.0118455 10.8771 0.157288 12.9088 0.50582 14.9105C0.642248 15.4434 0.90941 15.9294 1.28057 16.3197C1.65172 16.7099 2.11385 16.9908 2.62071 17.1343C4.48729 17.6655 11.9879 17.6655 11.9879 17.6655C11.9879 17.6655 19.4884 17.6655 21.355 17.1343C21.8619 16.9908 22.324 16.7099 22.6951 16.3197C23.0663 15.9294 23.3335 15.4434 23.4699 14.9105C23.8184 12.9088 23.9876 10.8771 23.9751 8.84221C23.9876 6.8073 23.8184 4.77564 23.4699 2.77395ZM9.59041 12.6236L9.59041 5.0608L15.8152 8.84221L9.59041 12.6236Z" fill="rgb(228.438,47.3627,7.61459)" fill-rule="nonzero" />
</svg>
